<svg xmlns="http://www.w3.org/2000/svg" viewBox="0 0 48 48">
<g>
		<path style="fill:#E6E7E8;" d="M11.5,38c-0.3,0-0.5-0.2-0.5-0.5v-27c0-0.3,0.2-0.5,0.5-0.5h16c0.3,0,0.5,0.2,0.5,0.5v27
			c0,0.3-0.2,0.5-0.5,0.5H11.5z"/>
		<g>
			<path style="fill:#3A345E;" d="M27.5,10.5v27h-16v-27H27.5 M27.5,9.5h-16c-0.6,0-1,0.4-1,1v27c0,0.6,0.4,1,1,1h16
				c0.6,0,1-0.4,1-1v-27C28.5,9.9,28.1,9.5,27.5,9.5L27.5,9.5z"/>
		</g>
</g>
<g>
		<path style="fill:#918BC3;" d="M16.5,27c-0.3,0-0.5-0.2-0.5-0.5v-5c0-0.3,0.2-0.5,0.5-0.5h22c0.3,0,0.5,0.2,0.5,0.5v5
			c0,0.3-0.2,0.5-0.5,0.5H16.5z"/>
		<g>
			<path style="fill:#3A345E;" d="M38.5,21.5v5h-22v-5H38.5 M38.5,20.5h-22c-0.6,0-1,0.4-1,1v5c0,0.6,0.4,1,1,1h22c0.6,0,1-0.4,1-1
				v-5C39.5,20.9,39.1,20.5,38.5,20.5L38.5,20.5z"/>
		</g>
</g>
<g>
		<g>
			<path style="fill:#3A345E;" d="M27.5,10.5v11h11v5h-11v11h-16v-27H27.5 M27.5,7.5h-16c-1.7,0-3,1.3-3,3v27c0,1.7,1.3,3,3,3h16
				c1.7,0,3-1.3,3-3v-8h8c1.7,0,3-1.3,3-3v-5c0-1.7-1.3-3-3-3h-8v-8C30.5,8.8,29.2,7.5,27.5,7.5L27.5,7.5z"/>
		</g>
</g>
</svg>
