<svg xmlns="http://www.w3.org/2000/svg" viewBox="0 0 48 48">
<g>
		<path style="fill:#E6E7E8;" d="M35,40c-0.2,0-0.4,0-0.6-0.1L24,35.2l-10.4,4.7C13.4,40,13.2,40,13,40c-0.3,0-0.6-0.1-0.8-0.2
			c-0.4-0.3-0.7-0.8-0.7-1.3V14.4c0-0.6,0.3-1.1,0.9-1.4l11-4.9C23.6,8,23.8,8,24,8s0.4,0,0.6,0.1l11,4.9c0.5,0.2,0.9,0.8,0.9,1.4
			v24.1c0,0.5-0.3,1-0.7,1.3C35.6,39.9,35.3,40,35,40z"/>
		<g>
			<path style="fill:#3A345E;" d="M24,9.5l11,4.9v24.1l-11-4.9l-11,4.9V14.4L24,9.5 M24,6.5c-0.4,0-0.8,0.1-1.2,0.3l-11,4.9
				c-1.1,0.5-1.8,1.6-1.8,2.7v24.1c0,1,0.5,2,1.4,2.5c0.5,0.3,1.1,0.5,1.6,0.5c0.4,0,0.8-0.1,1.2-0.3l9.8-4.4l9.8,4.4
				c0.4,0.2,0.8,0.3,1.2,0.3c0.6,0,1.1-0.2,1.6-0.5c0.9-0.6,1.4-1.5,1.4-2.5V14.4c0-1.2-0.7-2.3-1.8-2.7l-11-4.9
				C24.8,6.6,24.4,6.5,24,6.5L24,6.5z"/>
		</g>
</g>
<line style="fill:none;stroke:#3A345E;stroke-linecap:square;" x1="24" y1="9.5" x2="24" y2="33.6"/>
<path style="fill:none;stroke:#3A345E;stroke-width:3;stroke-linecap:round;stroke-linejoin:round;stroke-miterlimit:10;" d="
		M19.6,25.1l4.4-2.2l4.4,2.2"/>
</svg>
