<svg xmlns="http://www.w3.org/2000/svg" viewBox="0 0 48 48">
<g>
		<path style="fill:#E6E7E8;" d="M10.5,37C9.7,37,9,36.3,9,35.5v-23c0-0.8,0.7-1.5,1.5-1.5h27c0.8,0,1.5,0.7,1.5,1.5v23
			c0,0.8-0.7,1.5-1.5,1.5H10.5z"/>
		<path style="fill:#3A345E;" d="M37.5,12.5v23h-27v-23H37.5 M37.5,9.5h-27c-1.7,0-3,1.3-3,3v23c0,1.7,1.3,3,3,3h27c1.7,0,3-1.3,3-3
			v-23C40.5,10.8,39.2,9.5,37.5,9.5L37.5,9.5z"/>
</g>
<g>
		<path style="fill:#918BC3;" d="M10.5,27c-0.3,0-0.5-0.2-0.5-0.5v-5c0-0.3,0.2-0.5,0.5-0.5h27c0.3,0,0.5,0.2,0.5,0.5v5
			c0,0.3-0.2,0.5-0.5,0.5H10.5z"/>
		<g>
			<path style="fill:#3A345E;" d="M37.5,21.5v5h-27v-5H37.5 M37.5,20.5h-27c-0.6,0-1,0.4-1,1v5c0,0.6,0.4,1,1,1h27c0.6,0,1-0.4,1-1
				v-5C38.5,20.9,38.1,20.5,37.5,20.5L37.5,20.5z"/>
		</g>
</g>
</svg>
