<svg xmlns="http://www.w3.org/2000/svg" viewBox="0 0 48 48">
<g>
		<path style="fill:#E6E7E8;" d="M23.1,41.5c0,0-0.1,0-0.1,0l-0.8-0.1c0,0-0.1,0-0.1,0l-0.8-0.2c0,0-0.1,0-0.1,0l-0.8-0.3l-0.9-0.3
			c0,0-0.1,0-0.1,0l-0.8-0.3c0,0-0.1,0-0.1-0.1l-0.8-0.4l-8.4-5.1c-0.4-0.3-0.7-0.8-0.7-1.3V16.5c0-0.5,0.3-1,0.7-1.3l14-8.5
			c0.2-0.1,0.5-0.2,0.8-0.2s0.5,0.1,0.8,0.2l14,8.5c0.4,0.3,0.7,0.8,0.7,1.3v16.9c0,0.5-0.3,1-0.7,1.3l-8.3,5l-0.8,0.4
			c0,0-0.1,0-0.1,0.1l-0.8,0.3c0,0-0.1,0-0.1,0l-0.8,0.3l-0.9,0.3c0,0-0.1,0-0.1,0L26,41.3c0,0-0.1,0-0.1,0L25,41.5c0,0-0.1,0-0.1,0
			c0,0-0.9,0-0.9,0S23.1,41.5,23.1,41.5z"/>
		<path style="fill:#3A345E;" d="M24,8l14,8.5v16.9l-8.3,5l-0.8,0.4l-0.8,0.3l-0.8,0.3l-0.8,0.3l-0.8,0.2L24.8,40L24,40l-0.8,0
			l-0.8-0.1l-0.8-0.2l-0.8-0.3l-0.8-0.3l-0.8-0.3l-0.8-0.4l-8.3-5V16.5L24,8 M24,5c-0.5,0-1.1,0.1-1.6,0.4l-14,8.5
			C7.5,14.5,7,15.4,7,16.5v16.9c0,1,0.5,2,1.4,2.6l8.3,5c0,0,0.1,0,0.1,0.1l0.8,0.4c0.1,0,0.1,0.1,0.2,0.1l0.8,0.3
			c0.1,0,0.1,0.1,0.2,0.1l0.8,0.3c0.1,0,0.1,0,0.2,0.1l0.8,0.3c0.1,0,0.2,0.1,0.3,0.1l0.8,0.2c0.1,0,0.2,0,0.2,0l0.8,0.1
			c0.1,0,0.1,0,0.2,0l0.8,0c0,0,0.1,0,0.1,0s0.1,0,0.1,0l0.8,0c0.1,0,0.1,0,0.2,0l0.8-0.1c0.1,0,0.2,0,0.2,0l0.8-0.2
			c0.1,0,0.2,0,0.3-0.1l0.8-0.3c0.1,0,0.1,0,0.2-0.1l0.8-0.3c0.1,0,0.1,0,0.2-0.1l0.8-0.3c0.1,0,0.1-0.1,0.2-0.1l0.8-0.4
			c0,0,0.1,0,0.1-0.1l8.3-5c0.9-0.5,1.4-1.5,1.4-2.6V16.5c0-1-0.5-2-1.4-2.6l-14-8.5C25.1,5.1,24.5,5,24,5L24,5z"/>
</g>
<polyline style="fill:none;stroke:#3A345E;stroke-linejoin:round;stroke-miterlimit:10;" points="29.7,38.4 28.9,38.8 28.1,39.2 
		27.3,39.5 26.5,39.7 25.7,39.9 24.8,40 24,40 23.2,40 22.3,39.9 21.5,39.7 20.7,39.5 19.9,39.2 19.1,38.8 18.3,38.4 10,33.4 
		10,16.5 24,8 38,16.5 38,33.4 29.7,38.4 29.7,21.5 38,16.5 29.7,21.5 28.9,21.9 28.1,22.2 27.3,22.5 26.5,22.8 25.7,22.9 24.8,23 
		24,23.1 23.2,23 22.3,22.9 21.5,22.8 20.7,22.5 19.9,22.2 19.1,21.9 18.3,21.5 10,16.5 18.3,21.5 18.3,38.4 	"/>
<g>
		<polygon style="fill:#918BC3;stroke:#3A345E;stroke-linejoin:round;stroke-miterlimit:10;" points="29.7,21.5 28.9,21.9 
			28.1,22.3 27.4,22.5 26.5,22.8 25.7,22.9 24.8,23 24,23.1 23.2,23 22.3,22.9 21.5,22.8 20.7,22.5 19.9,22.3 19.1,21.9 18.3,21.5 
			18.3,38.4 19.1,38.8 19.9,39.2 20.7,39.5 21.5,39.7 22.3,39.9 23.2,40 24,40 24.8,40 25.7,39.9 26.5,39.7 27.4,39.5 28.1,39.2 
			28.9,38.8 29.7,38.4 		"/>
</g>
</svg>
