<svg xmlns="http://www.w3.org/2000/svg" viewBox="0 0 48 48">
<path style="fill-rule:evenodd;clip-rule:evenodd;fill:#E6E7E8;stroke:#3A345E;stroke-width:3;stroke-linejoin:round;stroke-miterlimit:10;" d="
		M9.9,14.2c0,0.7,0.6,1.2,1,1.8c0.4,0.5,0.8,1,1.3,1.5c0.5,0.6,0.2,0.8-0.1,1.4c-0.1,0.1-0.3,0.8-0.4,1c-0.1,0.2-0.1,0.4-0.2,0.5
		c-0.2,0.4-0.6,0.4-0.9,0.4c-0.4,0-0.8,0.1-1.3,0.1c-0.4,0-0.8,0.1-1.3,0.1c-1.8,0.2-1.6,1.4-1.6,2.6c0,0.5,0,0.9,0,1.4
		c0,0.8,0,1.5,0.9,1.9C7.7,27,8.2,27,8.6,27c0.4,0,0.8,0.1,1.3,0.1c0.4,0.1,1.1,0.1,1.3,0.1c0.4,0.1,0.5,0.4,0.6,0.8
		c0.1,0.3,0.2,0.7,0.4,1c0.1,0.3,0.4,0.6,0.4,0.9c0,0.3-0.3,0.6-0.5,0.8c-0.4,0.4-0.8,1-1.2,1.5c-0.5,0.6-1,1.1-0.7,1.9
		c0.1,0.3,0.3,0.6,0.6,0.8c0.5,0.5,0.9,0.9,1.4,1.4c0.5,0.5,0.9,1.1,1.8,1c0.6-0.1,1.2-0.7,1.7-1.1c0.3-0.2,0.5-0.4,0.8-0.6
		c0.1-0.1,0.3-0.2,0.4-0.3c0.5-0.4,0.7-0.6,1.3-0.3c0.3,0.2,0.6,0.3,0.9,0.4c0.9,0.4,1.4,0.1,1.4,1.3c0,0.4,0.1,0.8,0.1,1.3
		c0,0.4,0.1,0.8,0.1,1.3c0.2,1.8,1.4,1.6,2.6,1.6c0.5,0,0.9,0,1.4,0c0.8,0,1.5,0,1.9-0.9c0.2-0.4,0.3-1.9,0.3-2.5
		c0.1-0.4,0-0.9,0.1-1.3c0.1-0.4,0.4-0.5,0.8-0.6c0.3-0.1,0.7-0.2,1-0.4c0.3-0.1,0.7-0.4,0.9-0.5c0.4-0.1,0.6,0.2,0.9,0.4
		c0.2,0.2,0.5,0.4,0.8,0.6c0.3,0.2,0.5,0.4,0.8,0.6c0.6,0.5,1,1,1.9,0.8c0.4-0.1,0.6-0.3,0.9-0.5c0.5-0.5,0.9-0.9,1.4-1.4
		c0.5-0.5,1.1-0.9,1.1-1.7c0-0.7-0.6-1.2-1-1.8c-0.4-0.5-0.8-1-1.3-1.5c-0.5-0.6-0.1-0.9,0.1-1.4c0.7-1.3,0.2-1.8,1.5-1.9
		c0.6,0,1.9-0.2,2.5-0.2c0.8-0.1,1.4-0.4,1.5-1.3c0.1-0.4,0-2.2,0-2.8c0-0.8-0.1-1.5-0.9-1.9c-0.4-0.2-1.9-0.3-2.5-0.3
		c-0.4,0-0.9,0-1.3-0.1c-0.4-0.1-0.5-0.4-0.6-0.8c-0.1-0.3-0.3-0.7-0.4-1c-0.1-0.3-0.4-0.6-0.4-0.9c0-0.3,0.4-0.6,0.6-0.8
		c0.2-0.2,0.4-0.5,0.6-0.8c0.2-0.3,1.1-1.3,1.2-1.5c0.2-0.3,0.2-0.8,0.1-1.1c-0.1-0.3-0.3-0.6-0.6-0.8c-0.5-0.5-0.9-0.9-1.4-1.4
		c-0.5-0.5-0.9-1.1-1.8-0.9c-0.4,0.1-0.6,0.2-0.9,0.5c-0.3,0.2-0.5,0.4-0.8,0.6c-0.3,0.2-0.5,0.4-0.8,0.6c-0.3,0.2-0.6,0.5-0.8,0.6
		c-0.3,0.2-0.6,0.1-0.9-0.1c-0.3-0.2-0.6-0.3-0.9-0.4c-0.9-0.4-1.4-0.1-1.4-1.3c0-0.4-0.1-0.8-0.1-1.3c-0.1-1.1,0-2.6-1.4-2.8
		c-0.4-0.1-2.2,0-2.7,0c-0.8,0-1.5,0.1-1.9,0.9c-0.2,0.4-0.3,1.9-0.3,2.5c0,0.4,0,0.9-0.1,1.3c-0.1,0.4-0.4,0.5-0.8,0.6
		c-0.3,0.1-0.7,0.2-1,0.4c-0.3,0.1-0.7,0.4-0.9,0.5c-0.4,0.1-0.6-0.2-0.9-0.4c-0.3-0.3-1.2-0.9-1.5-1.2c-0.6-0.5-1-1-1.9-0.8
		c-0.4,0.1-0.6,0.2-0.9,0.5c-0.5,0.5-0.9,0.9-1.4,1.4c-0.2,0.2-0.5,0.5-0.7,0.7C10.1,13.4,9.9,13.9,9.9,14.2"/>
<path style="fill-rule:evenodd;clip-rule:evenodd;fill:#918BC3;stroke:#3A345E;stroke-linejoin:round;stroke-miterlimit:10;" d="
		M23.5,17c3.9,0,7,3.1,7,7c0,3.9-3.1,7-7,7s-7-3.1-7-7C16.5,20.1,19.6,17,23.5,17"/>
<path style="fill:#E6E7E8;stroke:#3A345E;stroke-linejoin:round;stroke-miterlimit:10;" d="M26.4,22.8 M26.4,25.2 M26.4,22.8"/>
<g>
		<path style="fill:#E6E7E8;" d="M23.5,27.5c-1.4,0-2.7-0.8-3.2-2.2c-0.4-0.9-0.4-1.8,0-2.7c0.4-0.9,1-1.5,1.9-1.9
			c0.4-0.2,0.9-0.3,1.3-0.3c1.4,0,2.7,0.8,3.2,2.2c0.4,0.9,0.4,1.8,0,2.7c-0.4,0.9-1,1.5-1.9,1.9C24.4,27.4,24,27.5,23.5,27.5z"/>
		<path style="fill:#3A345E;" d="M23.5,21c1.2,0,2.3,0.7,2.8,1.9c0.6,1.5-0.1,3.3-1.6,3.9c-0.4,0.2-0.8,0.2-1.1,0.2
			c-1.2,0-2.3-0.7-2.8-1.9c-0.6-1.5,0.1-3.3,1.6-3.9C22.7,21.1,23.1,21,23.5,21 M23.5,20C23.5,20,23.5,20,23.5,20
			c-0.5,0-1,0.1-1.5,0.3c-1,0.4-1.8,1.2-2.2,2.2c-0.4,1-0.4,2.1,0,3.1c0.6,1.5,2.1,2.5,3.7,2.5c0.5,0,1-0.1,1.5-0.3
			c2-0.8,3-3.2,2.2-5.2C26.6,21,25.1,20,23.5,20L23.5,20z"/>
</g>
</svg>
