<svg xmlns="http://www.w3.org/2000/svg" viewBox="0 0 48 48">
<g>
		<g>
			<path style="fill:#E6E7E8;" d="M11,38.5c-0.8,0-1.5-0.7-1.5-1.5v-4.7c0-0.8,0.7-1.5,1.5-1.5h3.6c-2.1-2.3-3.3-5.3-3.3-8.5
				c0-7,5.7-12.7,12.7-12.7s12.7,5.7,12.7,12.7c0,3.2-1.2,6.3-3.3,8.5H37c0.8,0,1.5,0.7,1.5,1.5V37c0,0.8-0.7,1.5-1.5,1.5H11z"/>
			<g>
				<path style="fill:#3A345E;" d="M24,11c6.2,0,11.2,5,11.2,11.2c0,4.4-2.5,8.2-6.2,10h8V37H11v-4.7h8c-3.7-1.8-6.2-5.6-6.2-10
					C12.8,16,17.8,11,24,11 M24,8C16.2,8,9.8,14.4,9.8,22.2c0,2.5,0.7,4.9,1.9,7H11c-1.7,0-3,1.3-3,3V37c0,1.7,1.3,3,3,3h26
					c1.7,0,3-1.3,3-3v-4.7c0-1.7-1.3-3-3-3h-0.6c1.2-2.1,1.9-4.5,1.9-7C38.2,14.4,31.8,8,24,8L24,8z"/>
			</g>
		</g>
		<g>
			<path style="fill:#918BC3;" d="M11,37.5c-0.3,0-0.5-0.2-0.5-0.5v-4.7c0-0.3,0.2-0.5,0.5-0.5h26c0.3,0,0.5,0.2,0.5,0.5V37
				c0,0.3-0.2,0.5-0.5,0.5H11z"/>
			<g>
				<path style="fill:#3A345E;" d="M37,32.3V37H11v-4.7H37 M37,31.3H11c-0.6,0-1,0.4-1,1V37c0,0.6,0.4,1,1,1h26c0.6,0,1-0.4,1-1
					v-4.7C38,31.7,37.6,31.3,37,31.3L37,31.3z"/>
			</g>
		</g>
		<g>
			<circle style="fill:#E6E7E8;" cx="24" cy="22.2" r="11.7"/>
			<g>
				<path style="fill:#3A345E;" d="M24,11c6.2,0,11.2,5,11.2,11.2s-5,11.2-11.2,11.2c-6.2,0-11.2-5-11.2-11.2S17.8,11,24,11 M24,10
					c-6.7,0-12.2,5.5-12.2,12.2S17.3,34.5,24,34.5S36.2,29,36.2,22.2S30.7,10,24,10L24,10z"/>
			</g>
		</g>
		<path style="fill:#3A345E;" d="M22.2,25.5c-0.1-0.2-0.2-0.4-0.2-0.6c-0.1-0.2-0.1-0.5-0.1-0.7c0-0.6,0.1-1.2,0.4-1.6
			c0.3-0.4,0.6-0.9,1.1-1.3c0.3-0.2,0.5-0.4,0.7-0.6c0.2-0.2,0.4-0.4,0.5-0.6c0.1-0.2,0.2-0.4,0.3-0.6C25,19.2,25,19,25,18.7
			c0-0.4-0.1-0.8-0.4-1.1s-0.7-0.4-1.2-0.4c-0.4,0-0.8,0.1-1.2,0.2c-0.4,0.1-0.8,0.3-1.3,0.6l-1.2-2.3c0.7-0.4,1.4-0.7,2-0.9
			c0.7-0.2,1.3-0.3,2-0.3c1.3,0,2.4,0.3,3.3,0.9c0.9,0.6,1.3,1.6,1.3,2.9c0,0.4,0,0.8-0.1,1.2c-0.1,0.3-0.2,0.7-0.4,1
			c-0.2,0.3-0.4,0.6-0.7,0.9c-0.3,0.3-0.6,0.6-1,0.9c-0.5,0.4-0.8,0.8-1.1,1.1s-0.4,0.7-0.4,1.1c0,0.1,0,0.2,0,0.3
			c0,0.1,0,0.2,0.1,0.2L22.2,25.5z M23.6,30c-0.6,0-1-0.2-1.4-0.5c-0.4-0.3-0.5-0.8-0.5-1.3s0.2-1,0.5-1.3c0.4-0.3,0.8-0.5,1.4-0.5
			c0.6,0,1,0.2,1.4,0.5s0.5,0.8,0.5,1.3s-0.2,1-0.5,1.3S24.2,30,23.6,30z"/>
</g>
</svg>
