<svg xmlns="http://www.w3.org/2000/svg" viewBox="0 0 48 48">
<g>
	<path style="fill:#E6E7E8;" d="M11.5,38c-0.8,0-1.5-0.7-1.5-1.5v-25c0-0.8,0.7-1.5,1.5-1.5h25c0.8,0,1.5,0.7,1.5,1.5v25
		c0,0.8-0.7,1.5-1.5,1.5H11.5z"/>
	<path style="fill:#3A345E;" d="M36.5,11.5v25h-25v-25H36.5 M36.5,8.5h-25c-1.7,0-3,1.3-3,3v25c0,1.7,1.3,3,3,3h25
		c1.7,0,3-1.3,3-3v-25C39.5,9.8,38.2,8.5,36.5,8.5L36.5,8.5z"/>
</g>
<g>
	<path style="fill:#918BC3;" d="M16.5,32c-0.3,0-0.5-0.2-0.5-0.5v-15c0-0.3,0.2-0.5,0.5-0.5h15c0.3,0,0.5,0.2,0.5,0.5v15
		c0,0.3-0.2,0.5-0.5,0.5H16.5z"/>
	<path style="fill:#3A345E;" d="M31.5,16.5v15h-15v-15H31.5 M31.5,15.5h-15c-0.6,0-1,0.4-1,1v15c0,0.6,0.4,1,1,1h15
		c0.6,0,1-0.4,1-1v-15C32.5,15.9,32.1,15.5,31.5,15.5L31.5,15.5z"/>
</g>
</svg>
