<svg xmlns="http://www.w3.org/2000/svg" viewBox="0 0 48 48">
<g>
		<path style="fill:#918BC3;" d="M19.7,37.5c-0.3,0-0.5-0.2-0.5-0.5V20c0-0.3,0.2-0.5,0.5-0.5h16.8c0.3,0,0.5,0.2,0.5,0.5v17
			c0,0.3-0.2,0.5-0.5,0.5H19.7z"/>
		<g>
			<path style="fill:#3A345E;" d="M36.5,20v17H19.7V20H36.5 M36.5,19H19.7c-0.6,0-1,0.4-1,1v17c0,0.6,0.4,1,1,1h16.8
				c0.6,0,1-0.4,1-1V20C37.5,19.5,37.1,19,36.5,19L36.5,19z"/>
		</g>
</g>
<g>
		<path style="fill:#E6E7E8;" d="M10.5,28.5c-0.3,0-0.5-0.2-0.5-0.5V11c0-0.3,0.2-0.5,0.5-0.5h16.8c0.3,0,0.5,0.2,0.5,0.5v17
			c0,0.3-0.2,0.5-0.5,0.5H10.5z"/>
		<g>
			<path style="fill:#3A345E;" d="M27.3,11v17H10.5V11H27.3 M27.3,10H10.5c-0.6,0-1,0.4-1,1v17c0,0.6,0.4,1,1,1h16.8
				c0.6,0,1-0.4,1-1V11C28.3,10.4,27.8,10,27.3,10L27.3,10z"/>
		</g>
</g>
<g>
		<g>
			<path style="fill:#3A345E;" d="M27.3,11v9h9.2v17H19.7v-9h-9.2V11H27.3 M27.3,8H10.5c-1.7,0-3,1.3-3,3v17c0,1.7,1.3,3,3,3h6.2v6
				c0,1.7,1.3,3,3,3h16.8c1.7,0,3-1.3,3-3V20c0-1.7-1.3-3-3-3h-6.2v-6C30.3,9.3,29,8,27.3,8L27.3,8z"/>
		</g>
</g>
</svg>
