<svg xmlns="http://www.w3.org/2000/svg" viewBox="0 0 48 48">
<line style="fill:none;stroke:#3A345E;stroke-width:3;stroke-linecap:round;stroke-linejoin:round;stroke-miterlimit:10;" x1="7.5" y1="24.1" x2="17.3" y2="24.1"/>
<g>
		<path style="fill:#E6E7E8;" d="M23,40.5c-0.4,0-0.8-0.2-1.1-0.5l-5-5.2c-0.6-0.6-0.6-1.5,0-2.1l5.6-5.8c-1.1-1.9-1.1-4.2,0-6
			l-5.6-5.8c-0.6-0.6-0.6-1.5,0-2.1l5-5.2c0.3-0.3,0.7-0.5,1.1-0.5l0,0c0.4,0,0.8,0.2,1.1,0.5l14.5,15c0.6,0.6,0.6,1.5,0,2.1
			L24.1,40C23.8,40.3,23.4,40.5,23,40.5z"/>
		<g>
			<path style="fill:#3A345E;" d="M23,9l9.5,9.8l5,5.2l-5,5.2L23,39l-5-5.2l6.5-6.7c-1.7-1.7-1.7-4.6,0-6.3L18,14.2L23,9 M23,6
				c-0.8,0-1.6,0.3-2.2,0.9l-5,5.2c-1.1,1.2-1.1,3,0,4.2l4.8,5C20,23,20,25,20.7,26.7l-4.8,5c-1.1,1.2-1.1,3,0,4.2l5,5.2
				c0.6,0.6,1.3,0.9,2.2,0.9s1.6-0.3,2.2-0.9l9.5-9.8l5-5.2c1.1-1.2,1.1-3,0-4.2l-5-5.2l-9.5-9.8C24.6,6.3,23.8,6,23,6L23,6z"/>
		</g>
</g>
<g>
		<path style="fill:#918BC3;" d="M27.6,29c-1.3,0-2.5-0.5-3.5-1.5c-1.9-1.9-1.9-5.1,0-7.1c0.9-0.9,2.2-1.5,3.5-1.5
			c1.3,0,2.5,0.5,3.5,1.5c1.9,1.9,1.9,5.1,0,7.1C30.1,28.5,28.9,29,27.6,29z"/>
		<path style="fill:#3A345E;" d="M27.6,19.5c1.1,0,2.2,0.4,3.1,1.3c1.7,1.8,1.7,4.6,0,6.4c-0.9,0.9-2,1.3-3.1,1.3
			c-1.1,0-2.2-0.4-3.1-1.3c-1.7-1.8-1.7-4.6,0-6.4C25.3,19.9,26.4,19.5,27.6,19.5 M27.6,18.5c-1.4,0-2.8,0.6-3.8,1.6
			c-2.1,2.1-2.1,5.6,0,7.8c1,1,2.4,1.6,3.8,1.6c1.4,0,2.8-0.6,3.8-1.6c2.1-2.1,2.1-5.6,0-7.8C30.4,19.1,29,18.5,27.6,18.5L27.6,18.5
			z"/>
</g>
</svg>
