<svg xmlns="http://www.w3.org/2000/svg" viewBox="0 0 48 48">
<g>
		<path style="fill:#E6E7E8;" d="M16,39.4c-0.5,0-1-0.3-1.3-0.8l-8-13.9c-0.3-0.5-0.3-1,0-1.5l8-13.9C15,8.9,15.5,8.6,16,8.6h16
			c0.5,0,1,0.3,1.3,0.8l8,13.9c0.3,0.5,0.3,1,0,1.5l-8,13.9c-0.3,0.5-0.8,0.8-1.3,0.8H16z"/>
		<g>
			<path style="fill:#3A345E;" d="M32,10.1L40,24l-8,13.9H16L8,24l8-13.9H32 M32,7.1H16c-1.1,0-2.1,0.6-2.6,1.5l-8,13.9
				c-0.5,0.9-0.5,2.1,0,3l8,13.9c0.5,0.9,1.5,1.5,2.6,1.5h16c1.1,0,2.1-0.6,2.6-1.5l8-13.9c0.5-0.9,0.5-2.1,0-3l-8-13.9
				C34.1,7.7,33.1,7.1,32,7.1L32,7.1z"/>
		</g>
</g>
<g>
		<path style="fill-rule:evenodd;clip-rule:evenodd;fill:#E6E7E8;" d="M24,34.8c-2.9,0-5.6-1.1-7.6-3.2c-4.2-4.2-4.2-11,0-15.3
			c2-2,4.7-3.2,7.6-3.2s5.6,1.1,7.6,3.2c4.2,4.2,4.2,11,0,15.3C29.6,33.7,26.9,34.8,24,34.8z"/>
		<g>
			<path style="fill:#918BC3;" d="M24,13.7c2.6,0,5.3,1,7.3,3c4,4,4,10.5,0,14.5c-2,2-4.6,3-7.3,3s-5.3-1-7.3-3c-4-4-4-10.5,0-14.5
				C18.7,14.7,21.4,13.7,24,13.7 M24,12.7c-3,0-5.8,1.2-8,3.3c-2.1,2.1-3.3,5-3.3,8s1.2,5.8,3.3,8c2.1,2.1,5,3.3,8,3.3
				s5.8-1.2,8-3.3c2.1-2.1,3.3-5,3.3-8s-1.2-5.8-3.3-8C29.8,13.9,27,12.7,24,12.7L24,12.7z"/>
		</g>
</g>
<g>
		<path style="fill:#918BC3;" d="M28,30.6c-0.1,0-0.3,0-0.4-0.1L24,26.8l-3.6,3.6c-0.1,0.1-0.2,0.1-0.4,0.1s-0.3,0-0.4-0.1l-2.1-2.1
			c-0.2-0.2-0.2-0.5,0-0.7l3.6-3.6l-3.6-3.6c-0.2-0.2-0.2-0.5,0-0.7l2.1-2.1c0.1-0.1,0.2-0.1,0.4-0.1s0.3,0,0.4,0.1l3.6,3.6l3.6-3.6
			c0.1-0.1,0.2-0.1,0.4-0.1s0.3,0,0.4,0.1l2.1,2.1c0.2,0.2,0.2,0.5,0,0.7L26.8,24l3.6,3.6c0.2,0.2,0.2,0.5,0,0.7l-2.1,2.1
			C28.3,30.6,28.1,30.6,28,30.6z"/>
		<path style="fill:#3A345E;" d="M28,17.9l2.1,2.1l-4,4l4,4L28,30.1l-4-4l-4,4L17.9,28l4-4l-4-4l2.1-2.1l4,4L28,17.9 M28,16.9
			c-0.3,0-0.5,0.1-0.7,0.3L24,20.5l-3.3-3.3c-0.2-0.2-0.5-0.3-0.7-0.3s-0.5,0.1-0.7,0.3l-2.1,2.1c-0.4,0.4-0.4,1,0,1.4l3.3,3.3
			l-3.3,3.3c-0.4,0.4-0.4,1,0,1.4l2.1,2.1c0.2,0.2,0.5,0.3,0.7,0.3s0.5-0.1,0.7-0.3l3.3-3.3l3.3,3.3c0.2,0.2,0.5,0.3,0.7,0.3
			s0.5-0.1,0.7-0.3l2.1-2.1c0.4-0.4,0.4-1,0-1.4L27.5,24l3.3-3.3c0.4-0.4,0.4-1,0-1.4l-2.1-2.1C28.5,17,28.3,16.9,28,16.9L28,16.9z"
			/>
</g>
</svg>
