<svg xmlns="http://www.w3.org/2000/svg" viewBox="0 0 48 48">
<g>
		<path style="fill:#E6E7E8;" d="M28.4,38.5c-0.8,0-1.5-0.7-1.5-1.5v-2.5h-5.9V37c0,0.8-0.7,1.5-1.5,1.5h-8c-0.8,0-1.5-0.7-1.5-1.5
			v-2.5H9c-0.8,0-1.5-0.7-1.5-1.5V15c0-0.8,0.7-1.5,1.5-1.5h1.1V11c0-0.8,0.7-1.5,1.5-1.5h8c0.8,0,1.5,0.7,1.5,1.5v2.5h5.9V11
			c0-0.8,0.7-1.5,1.5-1.5h8c0.8,0,1.5,0.7,1.5,1.5v2.5H39c0.8,0,1.5,0.7,1.5,1.5v18c0,0.8-0.7,1.5-1.5,1.5h-1.1V37
			c0,0.8-0.7,1.5-1.5,1.5H28.4z"/>
		<g>
			<path style="fill:#3A345E;" d="M36.4,11v4H39v18h-2.6v4h-8v-4h-8.9v4h-8v-4H9V15h2.6v-4h8v4h8.9v-4H36.4 M36.4,8h-8
				c-1.7,0-3,1.3-3,3v1h-2.9v-1c0-1.7-1.3-3-3-3h-8c-1.7,0-3,1.3-3,3v1C7.1,12.2,6,13.5,6,15v18c0,1.5,1.1,2.8,2.6,3v1
				c0,1.7,1.3,3,3,3h8c1.7,0,3-1.3,3-3v-1h2.9v1c0,1.7,1.3,3,3,3h8c1.7,0,3-1.3,3-3v-1c1.4-0.2,2.6-1.5,2.6-3V15
				c0-1.5-1.1-2.8-2.6-3v-1C39.4,9.3,38.1,8,36.4,8L36.4,8z"/>
		</g>
</g>
<g>
		<path style="fill:#918BC3;" d="M19,27c-0.3,0-0.5-0.2-0.5-0.5v-5c0-0.3,0.2-0.5,0.5-0.5h10c0.3,0,0.5,0.2,0.5,0.5v5
			c0,0.3-0.2,0.5-0.5,0.5H19z"/>
		<path style="fill:#3A345E;" d="M29,21.5v5H19v-5H29 M29,20.5H19c-0.6,0-1,0.4-1,1v5c0,0.6,0.4,1,1,1h10c0.6,0,1-0.4,1-1v-5
			C30,20.9,29.6,20.5,29,20.5L29,20.5z"/>
</g>
<g>
		<g>
			<rect x="11.6" y="33" style="fill:#918BC3;" width="8" height="4"/>
		</g>
		<g>
			<rect x="28.4" y="33" style="fill:#918BC3;" width="8" height="4"/>
		</g>
		<g>
			<rect x="11.6" y="11" style="fill:#918BC3;" width="8" height="4"/>
		</g>
		<g>
			<rect x="28.4" y="11" style="fill:#918BC3;" width="8" height="4"/>
		</g>
</g>
<g>
		<path style="fill:#3A345E;" d="M39,15v18H9V15H39 M39,14H9c-0.6,0-1,0.4-1,1v18c0,0.6,0.4,1,1,1h30c0.6,0,1-0.4,1-1V15
			C40,14.4,39.6,14,39,14L39,14z"/>
</g>
</svg>
