<svg xmlns="http://www.w3.org/2000/svg" viewBox="0 0 48 48">
<g>
		<path style="fill:#E6E7E8;" d="M11,38c-0.8,0-1.5-0.7-1.5-1.5v-25c0-0.8,0.7-1.5,1.5-1.5h25c0.8,0,1.5,0.7,1.5,1.5v25
			c0,0.8-0.7,1.5-1.5,1.5H11z"/>
		<path style="fill:#3A345E;" d="M36,11.5v25H11v-25H36 M36,8.5H11c-1.7,0-3,1.3-3,3v25c0,1.7,1.3,3,3,3h25c1.7,0,3-1.3,3-3v-25
			C39,9.8,37.7,8.5,36,8.5L36,8.5z"/>
</g>
<g>
		<path style="fill:#918BC3;" d="M10.5,37v-8.4h6.3c0.4,0,0.8-0.2,1.1-0.6c0.3-0.5,0.4-1.2,0.1-1.7l-1-2.3c-0.4-0.9-0.3-1.9,0.2-2.7
			c0.4-0.7,1.1-1.1,1.9-1.1h8.8c0.8,0,1.5,0.4,1.9,1.1c0.5,0.8,0.6,1.8,0.2,2.7l-1,2.3c-0.2,0.6-0.2,1.2,0.1,1.7
			c0.3,0.4,0.6,0.6,1.1,0.6h6.3V37H10.5z"/>
		<path style="fill:#3A345E;" d="M27.9,20.6c1.4,0,2.3,1.7,1.7,3.1l-1,2.3c-0.6,1.4,0.3,3.1,1.7,3.1H36v7.4H11v-7.4h5.8
			c1.4,0,2.3-1.7,1.7-3.1l-1-2.3c-0.6-1.4,0.3-3.1,1.7-3.1H27.9 M27.9,19.6h-8.8c-0.9,0-1.8,0.5-2.3,1.3c-0.6,0.9-0.7,2.1-0.3,3.2
			l1,2.3c0.2,0.5,0.1,1-0.1,1.3c-0.1,0.1-0.3,0.4-0.6,0.4H11h-1v1v7.4v1h1h25h1v-1v-7.4v-1h-1h-5.8c-0.3,0-0.6-0.2-0.6-0.4
			c-0.2-0.3-0.3-0.8-0.1-1.3l1-2.3c0.4-1,0.4-2.2-0.3-3.2C29.7,20.1,28.8,19.6,27.9,19.6L27.9,19.6z"/>
</g>
</svg>
