<svg xmlns="http://www.w3.org/2000/svg" viewBox="0 0 48 48">
<g>
		<g>
			<path style="fill:#E6E7E8;" d="M24.2,39.3c-0.4,0-0.8-0.1-1.1-0.4l-14-14c-0.3-0.3-0.4-0.7-0.4-1.1s0.2-0.8,0.4-1.1l14-14
				c0.3-0.3,0.7-0.4,1.1-0.4s0.8,0.1,1.1,0.4l14,14c0.3,0.3,0.4,0.7,0.4,1.1s-0.2,0.8-0.4,1.1l-14,14C25,39.1,24.6,39.3,24.2,39.3z"
				/>
			<g>
				<path style="fill:#3A345E;" d="M24.2,9.8l14,14l-14,14l-14-14L24.2,9.8 M24.2,6.8c-0.8,0-1.5,0.3-2.1,0.9l-14,14
					c-1.2,1.2-1.2,3.1,0,4.2l14,14c0.6,0.6,1.4,0.9,2.1,0.9s1.5-0.3,2.1-0.9l14-14c1.2-1.2,1.2-3.1,0-4.2l-14-14
					C25.8,7,25,6.8,24.2,6.8L24.2,6.8z"/>
			</g>
		</g>
</g>
<path id="XMLID_5_" style="fill:#3A345E;" d="M10.7,31.3l0.1,1.4c0.2,2.4,2.1,4.3,4.5,4.5l1.4,0.1l-1.4,0.1
		c-2.4,0.2-4.3,2.1-4.5,4.5l-0.1,1.4l-0.1-1.4c-0.2-2.4-2.1-4.3-4.5-4.5l-1.4-0.1l1.4-0.1c2.4-0.2,4.3-2.1,4.5-4.5L10.7,31.3z"/>
<path id="XMLID_2_" style="fill:#3A345E;" d="M37.3,4.7l0.1,1.4c0.2,2.4,2.1,4.3,4.5,4.5l1.4,0.1l-1.4,0.1
		c-2.4,0.2-4.3,2.1-4.5,4.5l-0.1,1.4l-0.1-1.4c-0.2-2.4-2.1-4.3-4.5-4.5l-1.4-0.1l1.4-0.1c2.4-0.2,4.3-2.1,4.5-4.5L37.3,4.7z"/>
</svg>
