<svg xmlns="http://www.w3.org/2000/svg" viewBox="0 0 48 48">
<g>
		<rect x="12" y="10" style="fill:#E6E7E8;" width="24" height="28"/>
		<g>
			<path style="fill:#3A345E;" d="M35.5,10.5v27h-23v-27H35.5 M36.5,9.5h-1h-23h-1v1v27v1h1h23h1v-1v-27V9.5L36.5,9.5z"/>
		</g>
</g>
<g>
		<line style="fill:none;stroke:#3A345E;stroke-linejoin:round;stroke-miterlimit:10;" x1="24" y1="31.9" x2="24" y2="10.5"/>
</g>
<g>
		<g>
			<path style="fill:#3A345E;" d="M35.5,10.5v27h-23v-27H35.5 M35.5,7.5h-23c-1.7,0-3,1.3-3,3v27c0,1.7,1.3,3,3,3h23
				c1.7,0,3-1.3,3-3v-27C38.5,8.8,37.2,7.5,35.5,7.5L35.5,7.5z"/>
		</g>
</g>
<line style="fill:none;stroke:#3A345E;stroke-linejoin:round;stroke-miterlimit:10;" x1="12.5" y1="31.9" x2="35.5" y2="31.9"/>
<g>
		
			<line style="fill:none;stroke:#3A345E;stroke-width:3;stroke-linecap:round;stroke-linejoin:round;stroke-miterlimit:10;" x1="27" y1="22" x2="27" y2="26"/>
		
			<line style="fill:none;stroke:#3A345E;stroke-width:3;stroke-linecap:round;stroke-linejoin:round;stroke-miterlimit:10;" x1="21" y1="22" x2="21" y2="26"/>
</g>
</svg>
