<svg xmlns="http://www.w3.org/2000/svg" viewBox="0 0 48 48">
<g>
		<path style="fill:#918BC3;" d="M24,39c-0.1,0-0.2,0-0.2-0.1L9.3,31.7C9.1,31.6,9,31.5,9,31.3v-3.7c0-0.2,0.1-0.3,0.2-0.4
			c0.1,0,0.2-0.1,0.3-0.1c0.1,0,0.2,0,0.2,0.1L24,34.3l14.3-7.1c0.1,0,0.1-0.1,0.2-0.1c0.1,0,0.2,0,0.3,0.1c0.1,0.1,0.2,0.3,0.2,0.4
			v3.7c0,0.2-0.1,0.4-0.3,0.4l-14.5,7.2C24.2,39,24.1,39,24,39z"/>
		<g>
			<path style="fill:#3A345E;" d="M38.5,27.6v3.7L24,38.5L9.5,31.3v-3.7L24,34.8L38.5,27.6 M9.5,26.6c-0.2,0-0.4,0.1-0.5,0.1
				c-0.3,0.2-0.5,0.5-0.5,0.9v3.7c0,0.4,0.2,0.7,0.6,0.9l14.5,7.2c0.1,0.1,0.3,0.1,0.4,0.1c0.2,0,0.3,0,0.4-0.1l14.5-7.2
				c0.3-0.2,0.6-0.5,0.6-0.9v-3.7c0-0.3-0.2-0.7-0.5-0.9c-0.2-0.1-0.3-0.1-0.5-0.1c-0.2,0-0.3,0-0.4,0.1l-14.1,7l-14.1-7
				C9.8,26.7,9.7,26.6,9.5,26.6L9.5,26.6z"/>
		</g>
</g>
<g>
		<path style="fill:#E6E7E8;" d="M24,35.3c-0.1,0-0.2,0-0.2-0.1L9.3,28.1C9.1,28,9,27.8,9,27.6s0.1-0.4,0.3-0.4l14.5-7.2
			c0.1,0,0.1-0.1,0.2-0.1s0.2,0,0.2,0.1l14.5,7.2c0.2,0.1,0.3,0.3,0.3,0.4s-0.1,0.4-0.3,0.4l-14.5,7.2C24.2,35.3,24.1,35.3,24,35.3z
			"/>
		<path style="fill:#3A345E;" d="M24,20.4l14.5,7.2L24,34.8L9.5,27.6L24,20.4 M24,19.4c-0.2,0-0.3,0-0.4,0.1L9.1,26.7
			c-0.3,0.2-0.6,0.5-0.6,0.9c0,0.4,0.2,0.7,0.6,0.9l14.5,7.2c0.1,0.1,0.3,0.1,0.4,0.1s0.3,0,0.4-0.1l14.5-7.2
			c0.3-0.2,0.6-0.5,0.6-0.9c0-0.4-0.2-0.7-0.6-0.9l-14.5-7.2C24.3,19.4,24.2,19.4,24,19.4L24,19.4z"/>
</g>
<g>
		<path style="fill:#918BC3;" d="M24,28.1c-0.1,0-0.2,0-0.2-0.1L9.3,20.8C9.1,20.7,9,20.6,9,20.4v-3.7c0-0.2,0.1-0.3,0.2-0.4
			c0.1,0,0.2-0.1,0.3-0.1c0.1,0,0.2,0,0.2,0.1L24,23.4l14.3-7.1c0.1,0,0.1-0.1,0.2-0.1c0.1,0,0.2,0,0.3,0.1c0.1,0.1,0.2,0.3,0.2,0.4
			v3.7c0,0.2-0.1,0.4-0.3,0.4l-14.5,7.2C24.2,28.1,24.1,28.1,24,28.1z"/>
		<g>
			<path style="fill:#3A345E;" d="M38.5,16.7v3.7L24,27.6L9.5,20.4v-3.7L24,24L38.5,16.7 M9.5,15.7c-0.2,0-0.4,0.1-0.5,0.1
				c-0.3,0.2-0.5,0.5-0.5,0.9v3.7c0,0.4,0.2,0.7,0.6,0.9l14.5,7.2c0.1,0.1,0.3,0.1,0.4,0.1c0.2,0,0.3,0,0.4-0.1l14.5-7.2
				c0.3-0.2,0.6-0.5,0.6-0.9v-3.7c0-0.3-0.2-0.7-0.5-0.9c-0.2-0.1-0.3-0.1-0.5-0.1c-0.2,0-0.3,0-0.4,0.1l-14.1,7l-14.1-7
				C9.8,15.8,9.7,15.7,9.5,15.7L9.5,15.7z"/>
		</g>
</g>
<g>
		<path style="fill:#E6E7E8;" d="M24,24.5c-0.1,0-0.2,0-0.2-0.1L9.3,17.2C9.1,17.1,9,16.9,9,16.7s0.1-0.4,0.3-0.4l14.5-7.2
			C23.8,9,23.9,9,24,9s0.2,0,0.2,0.1l14.5,7.2c0.2,0.1,0.3,0.3,0.3,0.4s-0.1,0.4-0.3,0.4l-14.5,7.2C24.2,24.4,24.1,24.5,24,24.5z"/>
		<path style="fill:#3A345E;" d="M24,9.5l14.5,7.2L24,24L9.5,16.7L24,9.5 M24,8.5c-0.2,0-0.3,0-0.4,0.1L9.1,15.8
			c-0.3,0.2-0.6,0.5-0.6,0.9c0,0.4,0.2,0.7,0.6,0.9l14.5,7.2c0.1,0.1,0.3,0.1,0.4,0.1s0.3,0,0.4-0.1l14.5-7.2
			c0.3-0.2,0.6-0.5,0.6-0.9c0-0.4-0.2-0.7-0.6-0.9L24.4,8.6C24.3,8.5,24.2,8.5,24,8.5L24,8.5z"/>
</g>
<g>
		<path style="fill:#3A345E;" d="M24,9.5l14.5,7.2v3.7L31.2,24l7.3,3.6v3.7L24,38.5L9.5,31.3v-3.7l7.2-3.6l-7.2-3.6v-3.7L24,9.5
			 M24,6.5c-0.5,0-0.9,0.1-1.3,0.3L8.2,14c-1,0.5-1.7,1.5-1.7,2.7v3.7c0,1.1,0.6,2.2,1.7,2.7L10,24l-1.9,0.9c-1,0.5-1.7,1.5-1.7,2.7
			v3.7c0,1.1,0.6,2.2,1.7,2.7l14.5,7.2c0.4,0.2,0.9,0.3,1.3,0.3s0.9-0.1,1.3-0.3L39.8,34c1-0.5,1.7-1.5,1.7-2.7v-3.7
			c0-1.1-0.6-2.2-1.7-2.7L38,24l1.9-0.9c1-0.5,1.7-1.5,1.7-2.7v-3.7c0-1.1-0.6-2.2-1.7-2.7L25.3,6.8C24.9,6.6,24.5,6.5,24,6.5
			L24,6.5z"/>
</g>
</svg>
