<svg xmlns="http://www.w3.org/2000/svg" viewBox="0 0 48 48">
<g>
		<path style="fill:#E6E7E8;" d="M10.5,37C9.7,37,9,36.3,9,35.5v-23c0-0.8,0.7-1.5,1.5-1.5h27c0.8,0,1.5,0.7,1.5,1.5v23
			c0,0.8-0.7,1.5-1.5,1.5H10.5z"/>
		<g>
			<path style="fill:#3A345E;" d="M37.5,12.5v23h-27v-23H37.5 M37.5,9.5h-27c-1.7,0-3,1.3-3,3v23c0,1.7,1.3,3,3,3h27
				c1.7,0,3-1.3,3-3v-23C40.5,10.8,39.2,9.5,37.5,9.5L37.5,9.5z"/>
		</g>
</g>
<g>
		
			<line style="fill:#E6E7E8;stroke:#918BC3;stroke-width:2;stroke-linejoin:round;stroke-miterlimit:10;" x1="17" y1="14.5" x2="17" y2="33.5"/>
		
			<line style="fill:#E6E7E8;stroke:#918BC3;stroke-width:2;stroke-linejoin:round;stroke-miterlimit:10;" x1="20.5" y1="14.5" x2="20.5" y2="33.5"/>
		
			<line style="fill:#E6E7E8;stroke:#918BC3;stroke-width:2;stroke-linejoin:round;stroke-miterlimit:10;" x1="24" y1="14.5" x2="24" y2="33.5"/>
		
			<line style="fill:#E6E7E8;stroke:#918BC3;stroke-width:2;stroke-linejoin:round;stroke-miterlimit:10;" x1="27.5" y1="14.5" x2="27.5" y2="33.5"/>
		
			<line style="fill:#E6E7E8;stroke:#918BC3;stroke-width:2;stroke-linejoin:round;stroke-miterlimit:10;" x1="31" y1="14.5" x2="31" y2="33.5"/>
</g>
<g>
		<g>
			<g>
				<path style="fill:#3A345E;" d="M33,12.5v2H15v-2H33 M33,11.5H15c-0.6,0-1,0.4-1,1v2c0,0.6,0.4,1,1,1h18c0.6,0,1-0.4,1-1v-2
					C34,11.9,33.6,11.5,33,11.5L33,11.5z"/>
			</g>
		</g>
		<g>
			<g>
				<path style="fill:#3A345E;" d="M33,33.5v2H15v-2H33 M33,32.5H15c-0.6,0-1,0.4-1,1v2c0,0.6,0.4,1,1,1h18c0.6,0,1-0.4,1-1v-2
					C34,32.9,33.6,32.5,33,32.5L33,32.5z"/>
			</g>
		</g>
</g>
<g>
		<g>
			<path style="fill:#3A345E;" d="M37.5,12.5v23h-27v-23H37.5 M37.5,9.5h-27c-1.7,0-3,1.3-3,3v23c0,1.7,1.3,3,3,3h27
				c1.7,0,3-1.3,3-3v-23C40.5,10.8,39.2,9.5,37.5,9.5L37.5,9.5z"/>
		</g>
</g>
</svg>
